<svg width="301" height="97" viewBox="0 0 301 97" fill="none" xmlns="http://www.w3.org/2000/svg">
<path d="M6.48 34L0.672 2.704H7.92L10.08 17.344C10.272 18.976 10.48 20.624 10.704 22.288C10.928 23.92 11.136 25.568 11.328 27.232H11.52C11.84 25.568 12.144 23.92 12.432 22.288C12.752 20.624 13.072 18.976 13.392 17.344L16.752 2.704H22.752L26.112 17.344C26.432 18.912 26.736 20.528 27.024 22.192C27.344 23.856 27.664 25.536 27.984 27.232H28.176C28.4 25.536 28.608 23.872 28.8 22.24C29.024 20.576 29.248 18.944 29.472 17.344L31.632 2.704H38.4L32.832 34H23.952L20.88 19.792C20.624 18.576 20.384 17.36 20.16 16.144C19.968 14.896 19.792 13.696 19.632 12.544H19.44C19.248 13.696 19.04 14.896 18.816 16.144C18.624 17.36 18.4 18.576 18.144 19.792L15.216 34H6.48ZM47.6044 34.576C45.4284 34.576 43.7004 33.888 42.4204 32.512C41.1404 31.104 40.5004 29.392 40.5004 27.376C40.5004 24.88 41.5564 22.928 43.6684 21.52C45.7804 20.112 49.1884 19.168 53.8924 18.688C53.8284 17.632 53.5084 16.8 52.9324 16.192C52.3884 15.552 51.4604 15.232 50.1484 15.232C49.1564 15.232 48.1484 15.424 47.1244 15.808C46.1004 16.192 45.0124 16.72 43.8604 17.392L41.3164 12.736C42.8204 11.808 44.4204 11.056 46.1164 10.48C47.8444 9.904 49.6364 9.616 51.4924 9.616C54.5324 9.616 56.8684 10.496 58.5004 12.256C60.1324 14.016 60.9484 16.72 60.9484 20.368V34H55.1884L54.7084 31.552H54.5164C53.5244 32.448 52.4524 33.184 51.3004 33.76C50.1804 34.304 48.9484 34.576 47.6044 34.576ZM50.0044 29.104C50.8044 29.104 51.4924 28.928 52.0684 28.576C52.6764 28.192 53.2844 27.696 53.8924 27.088V22.912C51.3964 23.232 49.6684 23.744 48.7084 24.448C47.7484 25.12 47.2684 25.92 47.2684 26.848C47.2684 27.616 47.5084 28.192 47.9884 28.576C48.5004 28.928 49.1724 29.104 50.0044 29.104ZM66.9169 34V10.192H72.6769L73.1569 13.216H73.3489C74.3729 12.256 75.4929 11.424 76.7089 10.72C77.9569 9.984 79.3809 9.616 80.9809 9.616C83.5729 9.616 85.4449 10.48 86.5969 12.208C87.7809 13.904 88.3729 16.24 88.3729 19.216V34H81.3169V20.128C81.3169 18.4 81.0769 17.216 80.5969 16.576C80.1489 15.936 79.4129 15.616 78.3889 15.616C77.4929 15.616 76.7249 15.824 76.0849 16.24C75.4449 16.624 74.7409 17.184 73.9729 17.92V34H66.9169ZM94.3856 34V10.192H100.146L100.626 13.216H100.818C101.842 12.256 102.962 11.424 104.178 10.72C105.426 9.984 106.85 9.616 108.45 9.616C111.042 9.616 112.914 10.48 114.066 12.208C115.25 13.904 115.842 16.24 115.842 19.216V34H108.786V20.128C108.786 18.4 108.546 17.216 108.066 16.576C107.618 15.936 106.882 15.616 105.858 15.616C104.962 15.616 104.194 15.824 103.554 16.24C102.914 16.624 102.21 17.184 101.442 17.92V34H94.3856ZM127.854 34.576C125.678 34.576 123.95 33.888 122.67 32.512C121.39 31.104 120.75 29.392 120.75 27.376C120.75 24.88 121.806 22.928 123.918 21.52C126.03 20.112 129.438 19.168 134.142 18.688C134.078 17.632 133.758 16.8 133.182 16.192C132.638 15.552 131.71 15.232 130.398 15.232C129.406 15.232 128.398 15.424 127.374 15.808C126.35 16.192 125.262 16.72 124.11 17.392L121.566 12.736C123.07 11.808 124.67 11.056 126.366 10.48C128.094 9.904 129.886 9.616 131.742 9.616C134.782 9.616 137.118 10.496 138.75 12.256C140.382 14.016 141.198 16.72 141.198 20.368V34H135.438L134.958 31.552H134.766C133.774 32.448 132.702 33.184 131.55 33.76C130.43 34.304 129.198 34.576 127.854 34.576ZM130.254 29.104C131.054 29.104 131.742 28.928 132.318 28.576C132.926 28.192 133.534 27.696 134.142 27.088V22.912C131.646 23.232 129.918 23.744 128.958 24.448C127.998 25.12 127.518 25.92 127.518 26.848C127.518 27.616 127.758 28.192 128.238 28.576C128.75 28.928 129.422 29.104 130.254 29.104ZM167.432 34.576C165.16 34.576 163.112 34.08 161.288 33.088C159.464 32.096 158.024 30.672 156.968 28.816C155.912 26.96 155.384 24.72 155.384 22.096C155.384 19.504 155.912 17.28 156.968 15.424C158.056 13.568 159.464 12.144 161.192 11.152C162.92 10.128 164.728 9.616 166.616 9.616C168.888 9.616 170.76 10.128 172.232 11.152C173.736 12.144 174.856 13.504 175.592 15.232C176.36 16.928 176.744 18.864 176.744 21.04C176.744 21.648 176.712 22.256 176.648 22.864C176.584 23.44 176.52 23.872 176.456 24.16H162.2C162.52 25.888 163.24 27.168 164.36 28C165.48 28.8 166.824 29.2 168.392 29.2C170.088 29.2 171.8 28.672 173.528 27.616L175.88 31.888C174.664 32.72 173.304 33.376 171.8 33.856C170.296 34.336 168.84 34.576 167.432 34.576ZM162.152 19.504H170.744C170.744 18.192 170.424 17.12 169.784 16.288C169.176 15.424 168.168 14.992 166.76 14.992C165.672 14.992 164.696 15.376 163.832 16.144C162.968 16.88 162.408 18 162.152 19.504ZM187.104 34.576C184.928 34.576 183.2 33.888 181.92 32.512C180.64 31.104 180 29.392 180 27.376C180 24.88 181.056 22.928 183.168 21.52C185.28 20.112 188.688 19.168 193.392 18.688C193.328 17.632 193.008 16.8 192.432 16.192C191.888 15.552 190.96 15.232 189.648 15.232C188.656 15.232 187.648 15.424 186.624 15.808C185.6 16.192 184.512 16.72 183.36 17.392L180.816 12.736C182.32 11.808 183.92 11.056 185.616 10.48C187.344 9.904 189.136 9.616 190.992 9.616C194.032 9.616 196.368 10.496 198 12.256C199.632 14.016 200.448 16.72 200.448 20.368V34H194.688L194.208 31.552H194.016C193.024 32.448 191.952 33.184 190.8 33.76C189.68 34.304 188.448 34.576 187.104 34.576ZM189.504 29.104C190.304 29.104 190.992 28.928 191.568 28.576C192.176 28.192 192.784 27.696 193.392 27.088V22.912C190.896 23.232 189.168 23.744 188.208 24.448C187.248 25.12 186.768 25.92 186.768 26.848C186.768 27.616 187.008 28.192 187.488 28.576C188 28.928 188.672 29.104 189.504 29.104ZM214.741 34.576C211.797 34.576 209.685 33.728 208.405 32.032C207.157 30.336 206.533 28.112 206.533 25.36V15.712H203.269V10.48L206.917 10.192L207.733 3.856H213.589V10.192H219.301V15.712H213.589V25.264C213.589 26.608 213.861 27.584 214.405 28.192C214.981 28.768 215.733 29.056 216.661 29.056C217.045 29.056 217.429 29.008 217.813 28.912C218.229 28.816 218.597 28.704 218.917 28.576L220.021 33.712C219.413 33.904 218.661 34.096 217.765 34.288C216.901 34.48 215.893 34.576 214.741 34.576ZM233.558 34V0.351998H240.614V8.608L240.278 12.88C241.174 12.08 242.214 11.344 243.398 10.672C244.614 9.968 246.022 9.616 247.622 9.616C250.214 9.616 252.086 10.48 253.238 12.208C254.422 13.904 255.014 16.24 255.014 19.216V34H247.958V20.128C247.958 18.4 247.718 17.216 247.238 16.576C246.79 15.936 246.054 15.616 245.03 15.616C244.134 15.616 243.366 15.824 242.726 16.24C242.086 16.624 241.382 17.184 240.614 17.92V34H233.558ZM271.203 34.576C269.187 34.576 267.283 34.096 265.491 33.136C263.731 32.144 262.307 30.72 261.219 28.864C260.131 26.976 259.587 24.72 259.587 22.096C259.587 19.44 260.131 17.184 261.219 15.328C262.307 13.472 263.731 12.064 265.491 11.104C267.283 10.112 269.187 9.616 271.203 9.616C273.219 9.616 275.107 10.112 276.867 11.104C278.627 12.064 280.051 13.472 281.139 15.328C282.227 17.184 282.771 19.44 282.771 22.096C282.771 24.72 282.227 26.976 281.139 28.864C280.051 30.72 278.627 32.144 276.867 33.136C275.107 34.096 273.219 34.576 271.203 34.576ZM271.203 28.864C272.643 28.864 273.731 28.256 274.467 27.04C275.203 25.792 275.571 24.144 275.571 22.096C275.571 20.016 275.203 18.368 274.467 17.152C273.731 15.936 272.643 15.328 271.203 15.328C269.731 15.328 268.627 15.936 267.891 17.152C267.187 18.368 266.835 20.016 266.835 22.096C266.835 24.144 267.187 25.792 267.891 27.04C268.627 28.256 269.731 28.864 271.203 28.864ZM295.507 34.576C292.563 34.576 290.451 33.728 289.171 32.032C287.923 30.336 287.299 28.112 287.299 25.36V15.712H284.035V10.48L287.683 10.192L288.499 3.856H294.355V10.192H300.067V15.712H294.355V25.264C294.355 26.608 294.627 27.584 295.171 28.192C295.747 28.768 296.499 29.056 297.427 29.056C297.811 29.056 298.195 29.008 298.579 28.912C298.995 28.816 299.363 28.704 299.683 28.576L300.787 33.712C300.179 33.904 299.427 34.096 298.531 34.288C297.667 34.48 296.659 34.576 295.507 34.576ZM10.8 63.288C10.8 63.864 10.88 64.472 11.04 65.112C11.232 65.752 11.488 66.392 11.808 67.032C12.928 66.36 13.872 65.656 14.64 64.92C15.408 64.184 15.792 63.288 15.792 62.232C15.792 61.496 15.616 60.904 15.264 60.456C14.912 60.008 14.368 59.784 13.632 59.784C12.832 59.784 12.16 60.104 11.616 60.744C11.072 61.352 10.8 62.2 10.8 63.288ZM11.616 87.576C9.344 87.576 7.424 87.176 5.856 86.376C4.32 85.544 3.152 84.456 2.352 83.112C1.584 81.736 1.2 80.248 1.2 78.648C1.2 76.472 1.76 74.712 2.88 73.368C4.032 71.992 5.376 70.808 6.912 69.816C6.304 68.696 5.824 67.592 5.472 66.504C5.152 65.384 4.992 64.328 4.992 63.336C4.992 61.832 5.328 60.472 6 59.256C6.704 58.008 7.696 57.016 8.976 56.28C10.256 55.512 11.76 55.128 13.488 55.128C15.856 55.128 17.728 55.768 19.104 57.048C20.48 58.328 21.168 60.056 21.168 62.232C21.168 63.576 20.848 64.792 20.208 65.88C19.568 66.936 18.752 67.896 17.76 68.76C16.768 69.592 15.728 70.376 14.64 71.112C15.536 72.136 16.512 73.144 17.568 74.136C18.656 75.096 19.776 75.992 20.928 76.824C21.728 75.8 22.432 74.664 23.04 73.416C23.648 72.168 24.144 70.808 24.528 69.336H30.96C30.384 71.224 29.664 73.048 28.8 74.808C27.968 76.568 26.944 78.264 25.728 79.896C26.72 80.408 27.664 80.84 28.56 81.192C29.488 81.512 30.352 81.736 31.152 81.864L29.472 87.576C28.192 87.32 26.864 86.92 25.488 86.376C24.144 85.832 22.8 85.176 21.456 84.408C20.144 85.4 18.672 86.184 17.04 86.76C15.408 87.304 13.6 87.576 11.616 87.576ZM7.872 78.216C7.872 79.4 8.304 80.36 9.168 81.096C10.032 81.832 11.152 82.2 12.528 82.2C13.84 82.2 15.152 81.784 16.464 80.952C15.28 79.96 14.128 78.92 13.008 77.832C11.92 76.744 10.912 75.624 9.984 74.472C9.376 75.016 8.864 75.592 8.448 76.2C8.064 76.808 7.872 77.48 7.872 78.216ZM51.753 87.576C50.185 87.576 48.569 87.272 46.905 86.664C45.273 86.056 43.849 85.256 42.633 84.264L45.801 79.848C46.889 80.648 47.929 81.272 48.921 81.72C49.945 82.136 50.953 82.344 51.945 82.344C53.001 82.344 53.769 82.168 54.249 81.816C54.729 81.432 54.969 80.936 54.969 80.328C54.969 79.784 54.729 79.336 54.249 78.984C53.801 78.632 53.209 78.312 52.473 78.024C51.737 77.704 50.953 77.384 50.121 77.064C49.161 76.68 48.201 76.2 47.241 75.624C46.313 75.048 45.529 74.312 44.889 73.416C44.249 72.488 43.929 71.368 43.929 70.056C43.929 67.848 44.761 66.056 46.425 64.68C48.121 63.304 50.329 62.616 53.049 62.616C54.873 62.616 56.473 62.936 57.849 63.576C59.257 64.184 60.457 64.872 61.449 65.64L58.281 69.864C57.449 69.224 56.617 68.728 55.785 68.376C54.953 68.024 54.121 67.848 53.289 67.848C51.465 67.848 50.553 68.472 50.553 69.72C50.553 70.488 51.001 71.08 51.897 71.496C52.825 71.88 53.897 72.296 55.113 72.744C56.137 73.096 57.129 73.56 58.089 74.136C59.081 74.68 59.897 75.416 60.537 76.344C61.209 77.24 61.545 78.424 61.545 79.896C61.545 82.04 60.713 83.864 59.049 85.368C57.385 86.84 54.953 87.576 51.753 87.576ZM66.0263 95.832V63.192H71.7863L72.2663 65.544H72.4583C73.3863 64.712 74.4263 64.024 75.5782 63.48C76.7623 62.904 77.9783 62.616 79.2263 62.616C82.1063 62.616 84.3783 63.72 86.0423 65.928C87.7063 68.104 88.5383 71.032 88.5383 74.712C88.5383 77.432 88.0583 79.752 87.0983 81.672C86.1383 83.592 84.8903 85.064 83.3543 86.088C81.8503 87.08 80.2343 87.576 78.5063 87.576C77.4823 87.576 76.4903 87.368 75.5303 86.952C74.5703 86.504 73.6743 85.88 72.8423 85.08L73.0823 88.872V95.832H66.0263ZM76.8743 81.816C78.0903 81.816 79.1303 81.256 79.9943 80.136C80.8583 79.016 81.2903 77.24 81.2903 74.808C81.2903 70.52 79.9143 68.376 77.1623 68.376C75.7863 68.376 74.4263 69.096 73.0823 70.536V80.28C73.7223 80.856 74.3623 81.256 75.0023 81.48C75.6423 81.704 76.2663 81.816 76.8743 81.816ZM93.5419 87V63.192H100.598V87H93.5419ZM97.0459 59.688C95.8619 59.688 94.9019 59.352 94.1659 58.68C93.4299 58.008 93.0619 57.112 93.0619 55.992C93.0619 54.872 93.4299 53.976 94.1659 53.304C94.9019 52.632 95.8619 52.296 97.0459 52.296C98.2299 52.296 99.1899 52.632 99.9259 53.304C100.662 53.976 101.03 54.872 101.03 55.992C101.03 57.112 100.662 58.008 99.9259 58.68C99.1899 59.352 98.2299 59.688 97.0459 59.688ZM117.176 87.576C114.968 87.576 112.968 87.096 111.176 86.136C109.416 85.144 108.008 83.72 106.952 81.864C105.928 79.976 105.416 77.72 105.416 75.096C105.416 72.44 105.992 70.184 107.144 68.328C108.296 66.472 109.816 65.064 111.704 64.104C113.592 63.112 115.624 62.616 117.799 62.616C119.272 62.616 120.568 62.856 121.688 63.336C122.84 63.816 123.864 64.424 124.76 65.16L121.448 69.72C120.328 68.792 119.256 68.328 118.232 68.328C116.536 68.328 115.176 68.936 114.152 70.152C113.16 71.368 112.664 73.016 112.664 75.096C112.664 77.144 113.16 78.792 114.152 80.04C115.176 81.256 116.456 81.864 117.992 81.864C118.76 81.864 119.512 81.704 120.248 81.384C120.984 81.032 121.656 80.616 122.264 80.136L125.048 84.744C123.864 85.768 122.584 86.504 121.208 86.952C119.832 87.368 118.488 87.576 117.176 87.576ZM131.854 96.312C131.15 96.312 130.526 96.264 129.982 96.168C129.47 96.072 128.974 95.96 128.494 95.832L129.742 90.456C129.966 90.488 130.222 90.536 130.51 90.6C130.798 90.696 131.07 90.744 131.326 90.744C132.51 90.744 133.422 90.456 134.062 89.88C134.702 89.304 135.182 88.552 135.502 87.624L135.838 86.376L126.67 63.192H133.774L137.182 73.416C137.534 74.504 137.854 75.608 138.142 76.728C138.43 77.848 138.734 79 139.054 80.184H139.246C139.502 79.064 139.758 77.944 140.014 76.824C140.302 75.672 140.59 74.536 140.878 73.416L143.758 63.192H150.526L142.27 87.24C141.534 89.224 140.718 90.888 139.822 92.232C138.926 93.608 137.838 94.632 136.558 95.304C135.31 95.976 133.742 96.312 131.854 96.312Z" fill="#212121"/>
<path d="M164.43 87V55.704H175.182C177.486 55.704 179.566 56.024 181.422 56.664C183.31 57.272 184.814 58.312 185.934 59.784C187.054 61.256 187.614 63.256 187.614 65.784C187.614 68.216 187.054 70.216 185.934 71.784C184.814 73.352 183.326 74.52 181.47 75.288C179.614 76.024 177.582 76.392 175.374 76.392H171.486V87H164.43ZM171.486 70.776H174.942C178.782 70.776 180.702 69.112 180.702 65.784C180.702 64.152 180.19 63 179.166 62.328C178.142 61.656 176.67 61.32 174.75 61.32H171.486V70.776ZM192.448 87V63.192H199.504V87H192.448ZM195.952 59.688C194.768 59.688 193.808 59.352 193.072 58.68C192.336 58.008 191.968 57.112 191.968 55.992C191.968 54.872 192.336 53.976 193.072 53.304C193.808 52.632 194.768 52.296 195.952 52.296C197.136 52.296 198.096 52.632 198.832 53.304C199.568 53.976 199.936 54.872 199.936 55.992C199.936 57.112 199.568 58.008 198.832 58.68C198.096 59.352 197.136 59.688 195.952 59.688ZM204.418 87V83.208L214.402 68.712H205.522V63.192H223.186V66.936L213.202 81.48H223.522V87H204.418ZM226.496 87V83.208L236.48 68.712H227.6V63.192H245.264V66.936L235.28 81.48H245.6V87H226.496ZM255.214 87.576C253.038 87.576 251.31 86.888 250.03 85.512C248.75 84.104 248.11 82.392 248.11 80.376C248.11 77.88 249.166 75.928 251.278 74.52C253.39 73.112 256.798 72.168 261.502 71.688C261.438 70.632 261.118 69.8 260.542 69.192C259.998 68.552 259.07 68.232 257.758 68.232C256.766 68.232 255.758 68.424 254.734 68.808C253.71 69.192 252.622 69.72 251.47 70.392L248.926 65.736C250.43 64.808 252.03 64.056 253.726 63.48C255.454 62.904 257.246 62.616 259.102 62.616C262.142 62.616 264.478 63.496 266.11 65.256C267.742 67.016 268.558 69.72 268.558 73.368V87H262.798L262.318 84.552H262.126C261.134 85.448 260.062 86.184 258.91 86.76C257.79 87.304 256.558 87.576 255.214 87.576ZM257.614 82.104C258.414 82.104 259.102 81.928 259.678 81.576C260.286 81.192 260.894 80.696 261.502 80.088V75.912C259.006 76.232 257.278 76.744 256.318 77.448C255.358 78.12 254.878 78.92 254.878 79.848C254.878 80.616 255.118 81.192 255.598 81.576C256.11 81.928 256.782 82.104 257.614 82.104ZM277.251 75.912C277.059 74.6 277.139 73.432 277.491 72.408C277.843 71.352 278.323 70.408 278.931 69.576C279.571 68.712 280.227 67.928 280.899 67.224C281.571 66.488 282.131 65.784 282.579 65.112C283.059 64.408 283.299 63.704 283.299 63C283.299 62.008 282.995 61.256 282.387 60.744C281.811 60.232 281.043 59.976 280.083 59.976C279.187 59.976 278.387 60.184 277.683 60.6C277.011 61.016 276.355 61.544 275.715 62.184L271.827 58.632C272.947 57.32 274.291 56.264 275.859 55.464C277.427 54.664 279.139 54.264 280.995 54.264C282.723 54.264 284.259 54.552 285.603 55.128C286.979 55.704 288.067 56.6 288.867 57.816C289.667 59.032 290.067 60.584 290.067 62.472C290.067 63.656 289.827 64.712 289.347 65.64C288.867 66.536 288.275 67.368 287.571 68.136C286.867 68.904 286.179 69.672 285.507 70.44C284.835 71.176 284.291 71.992 283.875 72.888C283.459 73.752 283.315 74.76 283.443 75.912H277.251ZM280.323 87.576C279.107 87.576 278.099 87.16 277.299 86.328C276.499 85.464 276.099 84.408 276.099 83.16C276.099 81.88 276.499 80.824 277.299 79.992C278.099 79.128 279.107 78.696 280.323 78.696C281.539 78.696 282.547 79.128 283.347 79.992C284.179 80.824 284.595 81.88 284.595 83.16C284.595 84.408 284.179 85.464 283.347 86.328C282.547 87.16 281.539 87.576 280.323 87.576Z" fill="#FFB30E"/>
</svg>
