<svg width="319" height="81" viewBox="0 0 319 81" fill="none" xmlns="http://www.w3.org/2000/svg">
<path d="M2.311 31.5V3.464H11.9C13.8493 3.464 15.598 3.679 17.146 4.109C18.694 4.51033 19.9267 5.21267 20.844 6.216C21.7613 7.21933 22.22 8.624 22.22 10.43C22.22 11.6627 21.8903 12.881 21.231 14.085C20.6003 15.2603 19.7117 16.063 18.565 16.493V16.665C19.9983 17.0377 21.188 17.7687 22.134 18.858C23.1087 19.9187 23.596 21.3807 23.596 23.244C23.596 25.1647 23.1087 26.727 22.134 27.931C21.1593 29.135 19.855 30.038 18.221 30.64C16.587 31.2133 14.7523 31.5 12.717 31.5H2.311ZM8.632 14.687H11.599C13.147 14.687 14.265 14.386 14.953 13.784C15.6697 13.182 16.028 12.3793 16.028 11.376C16.028 10.2867 15.6697 9.51267 14.953 9.054C14.2363 8.59533 13.1327 8.366 11.642 8.366H8.632V14.687ZM8.632 26.598H12.201C15.6697 26.598 17.404 25.3367 17.404 22.814C17.404 21.5813 16.974 20.707 16.114 20.191C15.254 19.6463 13.9497 19.374 12.201 19.374H8.632V26.598ZM37.3762 32.016C35.3408 32.016 33.5062 31.5717 31.8722 30.683C30.2382 29.7943 28.9482 28.5187 28.0022 26.856C27.0562 25.1933 26.5832 23.1867 26.5832 20.836C26.5832 18.514 27.0562 16.5217 28.0022 14.859C28.9768 13.1963 30.2382 11.9207 31.7862 11.032C33.3342 10.1147 34.9538 9.656 36.6452 9.656C38.6805 9.656 40.3575 10.1147 41.6762 11.032C43.0235 11.9207 44.0268 13.139 44.6862 14.687C45.3742 16.2063 45.7182 17.9407 45.7182 19.89C45.7182 20.4347 45.6895 20.9793 45.6322 21.524C45.5748 22.04 45.5175 22.427 45.4602 22.685H32.6892C32.9758 24.233 33.6208 25.3797 34.6242 26.125C35.6275 26.8417 36.8315 27.2 38.2362 27.2C39.7555 27.2 41.2892 26.727 42.8372 25.781L44.9442 29.608C43.8548 30.3533 42.6365 30.941 41.2892 31.371C39.9418 31.801 38.6375 32.016 37.3762 32.016ZM32.6462 18.514H40.3432C40.3432 17.3387 40.0565 16.3783 39.4832 15.633C38.9385 14.859 38.0355 14.472 36.7742 14.472C35.7995 14.472 34.9252 14.816 34.1512 15.504C33.3772 16.1633 32.8755 17.1667 32.6462 18.514ZM56.364 32.016C54.9593 32.016 53.5117 31.7437 52.021 31.199C50.559 30.6543 49.2833 29.9377 48.194 29.049L51.032 25.093C52.0067 25.8097 52.9383 26.3687 53.827 26.77C54.7443 27.1427 55.6473 27.329 56.536 27.329C57.482 27.329 58.17 27.1713 58.6 26.856C59.03 26.512 59.245 26.0677 59.245 25.523C59.245 25.0357 59.03 24.6343 58.6 24.319C58.1987 24.0037 57.6683 23.717 57.009 23.459C56.3497 23.1723 55.6473 22.8857 54.902 22.599C54.042 22.255 53.182 21.825 52.322 21.309C51.4907 20.793 50.7883 20.1337 50.215 19.331C49.6417 18.4997 49.355 17.4963 49.355 16.321C49.355 14.343 50.1003 12.7377 51.591 11.505C53.1103 10.2723 55.0883 9.656 57.525 9.656C59.159 9.656 60.5923 9.94267 61.825 10.516C63.0864 11.0607 64.1614 11.677 65.05 12.365L62.212 16.149C61.4667 15.5757 60.7213 15.1313 59.976 14.816C59.2307 14.5007 58.4853 14.343 57.74 14.343C56.106 14.343 55.289 14.902 55.289 16.02C55.289 16.708 55.6903 17.2383 56.493 17.611C57.3243 17.955 58.2847 18.3277 59.374 18.729C60.2913 19.0443 61.18 19.46 62.04 19.976C62.9287 20.4633 63.6597 21.1227 64.233 21.954C64.835 22.7567 65.136 23.8173 65.136 25.136C65.136 27.0567 64.3907 28.6907 62.9 30.038C61.4093 31.3567 59.2307 32.016 56.364 32.016ZM76.5236 32.016C73.8863 32.016 71.9943 31.2563 70.8476 29.737C69.7296 28.2177 69.1706 26.2253 69.1706 23.76V15.117H66.2466V10.43L69.5146 10.172L70.2456 4.496H75.4916V10.172H80.6086V15.117H75.4916V23.674C75.4916 24.878 75.7353 25.7523 76.2226 26.297C76.7386 26.813 77.4123 27.071 78.2436 27.071C78.5876 27.071 78.9316 27.028 79.2756 26.942C79.6483 26.856 79.978 26.7557 80.2646 26.641L81.2536 31.242C80.709 31.414 80.0353 31.586 79.2326 31.758C78.4586 31.93 77.5556 32.016 76.5236 32.016ZM100.991 32.016C98.3536 32.016 96.2323 31.027 94.627 29.049C93.0503 27.0423 92.262 24.3047 92.262 20.836C92.262 18.514 92.6776 16.5217 93.509 14.859C94.369 13.1677 95.4726 11.8777 96.82 10.989C98.196 10.1003 99.6293 9.656 101.12 9.656C102.295 9.656 103.284 9.85667 104.087 10.258C104.89 10.6593 105.649 11.204 106.366 11.892L106.108 8.624V1.357H112.429V31.5H107.269L106.839 29.393H106.667C105.922 30.1383 105.047 30.769 104.044 31.285C103.041 31.7723 102.023 32.016 100.991 32.016ZM102.625 26.856C103.313 26.856 103.929 26.7127 104.474 26.426C105.047 26.1393 105.592 25.6377 106.108 24.921V16.192C105.563 15.676 104.976 15.3177 104.345 15.117C103.743 14.9163 103.155 14.816 102.582 14.816C101.579 14.816 100.69 15.3033 99.916 16.278C99.142 17.224 98.755 18.7147 98.755 20.75C98.755 22.8427 99.0846 24.3907 99.744 25.394C100.432 26.3687 101.392 26.856 102.625 26.856ZM127.575 32.016C125.54 32.016 123.705 31.5717 122.071 30.683C120.437 29.7943 119.147 28.5187 118.201 26.856C117.255 25.1933 116.782 23.1867 116.782 20.836C116.782 18.514 117.255 16.5217 118.201 14.859C119.176 13.1963 120.437 11.9207 121.985 11.032C123.533 10.1147 125.153 9.656 126.844 9.656C128.88 9.656 130.557 10.1147 131.875 11.032C133.223 11.9207 134.226 13.139 134.885 14.687C135.573 16.2063 135.917 17.9407 135.917 19.89C135.917 20.4347 135.889 20.9793 135.831 21.524C135.774 22.04 135.717 22.427 135.659 22.685H122.888C123.175 24.233 123.82 25.3797 124.823 26.125C125.827 26.8417 127.031 27.2 128.435 27.2C129.955 27.2 131.488 26.727 133.036 25.781L135.143 29.608C134.054 30.3533 132.836 30.941 131.488 31.371C130.141 31.801 128.837 32.016 127.575 32.016ZM122.845 18.514H130.542C130.542 17.3387 130.256 16.3783 129.682 15.633C129.138 14.859 128.235 14.472 126.973 14.472C125.999 14.472 125.124 14.816 124.35 15.504C123.576 16.1633 123.075 17.1667 122.845 18.514ZM145.198 32.016C143.249 32.016 141.701 31.3997 140.554 30.167C139.408 28.9057 138.834 27.372 138.834 25.566C138.834 23.33 139.78 21.5813 141.672 20.32C143.564 19.0587 146.617 18.213 150.831 17.783C150.774 16.837 150.487 16.0917 149.971 15.547C149.484 14.9737 148.653 14.687 147.477 14.687C146.589 14.687 145.686 14.859 144.768 15.203C143.851 15.547 142.876 16.02 141.844 16.622L139.565 12.451C140.913 11.6197 142.346 10.946 143.865 10.43C145.413 9.914 147.019 9.656 148.681 9.656C151.405 9.656 153.497 10.4443 154.959 12.021C156.421 13.5977 157.152 16.02 157.152 19.288V31.5H151.992L151.562 29.307H151.39C150.502 30.1097 149.541 30.769 148.509 31.285C147.506 31.7723 146.402 32.016 145.198 32.016ZM147.348 27.114C148.065 27.114 148.681 26.9563 149.197 26.641C149.742 26.297 150.287 25.8527 150.831 25.308V21.567C148.595 21.8537 147.047 22.3123 146.187 22.943C145.327 23.545 144.897 24.2617 144.897 25.093C144.897 25.781 145.112 26.297 145.542 26.641C146.001 26.9563 146.603 27.114 147.348 27.114ZM168.304 32.016C166.125 32.016 164.606 31.371 163.746 30.081C162.915 28.7623 162.499 27.028 162.499 24.878V1.357H168.82V25.136C168.82 25.7953 168.935 26.254 169.164 26.512C169.422 26.77 169.68 26.899 169.938 26.899C170.081 26.899 170.196 26.899 170.282 26.899C170.397 26.8703 170.54 26.8417 170.712 26.813L171.486 31.5C171.142 31.6433 170.698 31.758 170.153 31.844C169.637 31.9587 169.021 32.016 168.304 32.016ZM181.081 32.016C179.676 32.016 178.228 31.7437 176.738 31.199C175.276 30.6543 174 29.9377 172.911 29.049L175.749 25.093C176.723 25.8097 177.655 26.3687 178.544 26.77C179.461 27.1427 180.364 27.329 181.253 27.329C182.199 27.329 182.887 27.1713 183.317 26.856C183.747 26.512 183.962 26.0677 183.962 25.523C183.962 25.0357 183.747 24.6343 183.317 24.319C182.915 24.0037 182.385 23.717 181.726 23.459C181.066 23.1723 180.364 22.8857 179.619 22.599C178.759 22.255 177.899 21.825 177.039 21.309C176.207 20.793 175.505 20.1337 174.932 19.331C174.358 18.4997 174.072 17.4963 174.072 16.321C174.072 14.343 174.817 12.7377 176.308 11.505C177.827 10.2723 179.805 9.656 182.242 9.656C183.876 9.656 185.309 9.94267 186.542 10.516C187.803 11.0607 188.878 11.677 189.767 12.365L186.929 16.149C186.183 15.5757 185.438 15.1313 184.693 14.816C183.947 14.5007 183.202 14.343 182.457 14.343C180.823 14.343 180.006 14.902 180.006 16.02C180.006 16.708 180.407 17.2383 181.21 17.611C182.041 17.955 183.001 18.3277 184.091 18.729C185.008 19.0443 185.897 19.46 186.757 19.976C187.645 20.4633 188.376 21.1227 188.95 21.954C189.552 22.7567 189.853 23.8173 189.853 25.136C189.853 27.0567 189.107 28.6907 187.617 30.038C186.126 31.3567 183.947 32.016 181.081 32.016Z" fill="#353535"/>
<path d="M214.688 32.016C212.337 32.016 210.173 31.4713 208.195 30.382C206.217 29.2927 204.626 27.6873 203.422 25.566C202.246 23.416 201.659 20.7787 201.659 17.654C201.659 14.558 202.261 11.9207 203.465 9.742C204.697 7.53467 206.317 5.85767 208.324 4.711C210.359 3.53567 212.552 2.948 214.903 2.948C216.709 2.948 218.328 3.32067 219.762 4.066C221.195 4.78267 222.385 5.62833 223.331 6.603L219.977 10.645C219.26 9.98567 218.5 9.45533 217.698 9.054C216.924 8.624 216.035 8.409 215.032 8.409C213.77 8.409 212.609 8.76733 211.549 9.484C210.517 10.2007 209.685 11.2327 209.055 12.58C208.453 13.9273 208.152 15.547 208.152 17.439C208.152 20.3057 208.768 22.5417 210.001 24.147C211.233 25.7523 212.882 26.555 214.946 26.555C216.092 26.555 217.11 26.297 217.999 25.781C218.916 25.265 219.719 24.6487 220.407 23.932L223.761 27.888C221.41 30.64 218.386 32.016 214.688 32.016ZM227.503 31.5V10.172H232.663L233.093 13.913H233.265C234.039 12.4797 234.971 11.419 236.06 10.731C237.149 10.0143 238.239 9.656 239.328 9.656C239.93 9.656 240.432 9.699 240.833 9.785C241.234 9.84233 241.578 9.94267 241.865 10.086L240.833 15.547C240.46 15.4323 240.088 15.3463 239.715 15.289C239.371 15.2317 238.97 15.203 238.511 15.203C237.708 15.203 236.863 15.504 235.974 16.106C235.114 16.6793 234.397 17.6827 233.824 19.116V31.5H227.503ZM244.636 31.5V10.172H250.957V31.5H244.636ZM247.775 7.033C246.714 7.033 245.854 6.732 245.195 6.13C244.535 5.528 244.206 4.72533 244.206 3.722C244.206 2.71866 244.535 1.916 245.195 1.314C245.854 0.711998 246.714 0.410998 247.775 0.410998C248.835 0.410998 249.695 0.711998 250.355 1.314C251.014 1.916 251.344 2.71866 251.344 3.722C251.344 4.72533 251.014 5.528 250.355 6.13C249.695 6.732 248.835 7.033 247.775 7.033ZM262.798 32.016C261.393 32.016 259.945 31.7437 258.455 31.199C256.993 30.6543 255.717 29.9377 254.628 29.049L257.466 25.093C258.44 25.8097 259.372 26.3687 260.261 26.77C261.178 27.1427 262.081 27.329 262.97 27.329C263.916 27.329 264.604 27.1713 265.034 26.856C265.464 26.512 265.679 26.0677 265.679 25.523C265.679 25.0357 265.464 24.6343 265.034 24.319C264.632 24.0037 264.102 23.717 263.443 23.459C262.783 23.1723 262.081 22.8857 261.336 22.599C260.476 22.255 259.616 21.825 258.756 21.309C257.924 20.793 257.222 20.1337 256.649 19.331C256.075 18.4997 255.789 17.4963 255.789 16.321C255.789 14.343 256.534 12.7377 258.025 11.505C259.544 10.2723 261.522 9.656 263.959 9.656C265.593 9.656 267.026 9.94267 268.259 10.516C269.52 11.0607 270.595 11.677 271.484 12.365L268.646 16.149C267.9 15.5757 267.155 15.1313 266.41 14.816C265.664 14.5007 264.919 14.343 264.174 14.343C262.54 14.343 261.723 14.902 261.723 16.02C261.723 16.708 262.124 17.2383 262.927 17.611C263.758 17.955 264.718 18.3277 265.808 18.729C266.725 19.0443 267.614 19.46 268.474 19.976C269.362 20.4633 270.093 21.1227 270.667 21.954C271.269 22.7567 271.57 23.8173 271.57 25.136C271.57 27.0567 270.824 28.6907 269.334 30.038C267.843 31.3567 265.664 32.016 262.798 32.016ZM275.584 39.412V10.172H280.744L281.174 12.279H281.346C282.177 11.5337 283.109 10.9173 284.141 10.43C285.202 9.914 286.291 9.656 287.409 9.656C289.989 9.656 292.024 10.645 293.515 12.623C295.006 14.5723 295.751 17.1953 295.751 20.492C295.751 22.9287 295.321 25.007 294.461 26.727C293.601 28.447 292.483 29.7657 291.107 30.683C289.76 31.5717 288.312 32.016 286.764 32.016C285.847 32.016 284.958 31.8297 284.098 31.457C283.238 31.0557 282.435 30.4967 281.69 29.78L281.905 33.177V39.412H275.584ZM285.302 26.856C286.391 26.856 287.323 26.3543 288.097 25.351C288.871 24.3477 289.258 22.7567 289.258 20.578C289.258 16.7367 288.025 14.816 285.56 14.816C284.327 14.816 283.109 15.461 281.905 16.751V25.48C282.478 25.996 283.052 26.3543 283.625 26.555C284.198 26.7557 284.757 26.856 285.302 26.856ZM302.263 39.842C301.632 39.842 301.073 39.799 300.586 39.713C300.127 39.627 299.683 39.5267 299.253 39.412L300.371 34.596C300.571 34.6247 300.801 34.6677 301.059 34.725C301.317 34.811 301.56 34.854 301.79 34.854C302.85 34.854 303.667 34.596 304.241 34.08C304.814 33.564 305.244 32.8903 305.531 32.059L305.832 30.941L297.619 10.172H303.983L307.036 19.331C307.351 20.3057 307.638 21.2947 307.896 22.298C308.154 23.3013 308.426 24.3333 308.713 25.394H308.885C309.114 24.3907 309.343 23.3873 309.573 22.384C309.831 21.352 310.089 20.3343 310.347 19.331L312.927 10.172H318.99L311.594 31.715C310.934 33.4923 310.203 34.983 309.401 36.187C308.598 37.4197 307.623 38.337 306.477 38.939C305.359 39.541 303.954 39.842 302.263 39.842ZM10.868 80.016C9.03333 80.016 7.19867 79.672 5.364 78.984C3.558 78.296 1.93833 77.2927 0.505 75.974L4.117 71.631C5.12033 72.491 6.23833 73.1933 7.471 73.738C8.70367 74.2827 9.89333 74.555 11.04 74.555C12.3587 74.555 13.3333 74.3113 13.964 73.824C14.6233 73.3367 14.953 72.6773 14.953 71.846C14.953 70.9573 14.5803 70.3123 13.835 69.911C13.1183 69.481 12.1437 69.008 10.911 68.492L7.256 66.944C6.31 66.5427 5.407 66.0123 4.547 65.353C3.687 64.665 2.98467 63.8193 2.44 62.816C1.89533 61.8127 1.623 60.6373 1.623 59.29C1.623 57.742 2.03867 56.3373 2.87 55.076C3.73 53.8147 4.90533 52.8113 6.396 52.066C7.91533 51.3207 9.64967 50.948 11.599 50.948C13.2043 50.948 14.8097 51.2633 16.415 51.894C18.0203 52.5247 19.425 53.442 20.629 54.646L17.404 58.645C16.4867 57.9283 15.5693 57.3837 14.652 57.011C13.7347 56.6097 12.717 56.409 11.599 56.409C10.5097 56.409 9.63533 56.6383 8.976 57.097C8.34533 57.527 8.03 58.1433 8.03 58.946C8.03 59.806 8.43133 60.451 9.234 60.881C10.0653 61.311 11.083 61.7697 12.287 62.257L15.899 63.719C17.5903 64.407 18.9377 65.353 19.941 66.557C20.9443 67.761 21.446 69.352 21.446 71.33C21.446 72.878 21.0303 74.3113 20.199 75.63C19.3677 76.9487 18.1637 78.0093 16.587 78.812C15.0103 79.6147 13.104 80.016 10.868 80.016ZM31.0636 80.016C29.1142 80.016 27.5662 79.3997 26.4196 78.167C25.2729 76.9057 24.6996 75.372 24.6996 73.566C24.6996 71.33 25.6456 69.5813 27.5376 68.32C29.4296 67.0587 32.4826 66.213 36.6966 65.783C36.6392 64.837 36.3526 64.0917 35.8366 63.547C35.3492 62.9737 34.5179 62.687 33.3426 62.687C32.4539 62.687 31.5509 62.859 30.6336 63.203C29.7162 63.547 28.7416 64.02 27.7096 64.622L25.4306 60.451C26.7779 59.6197 28.2112 58.946 29.7306 58.43C31.2786 57.914 32.8839 57.656 34.5466 57.656C37.2699 57.656 39.3626 58.4443 40.8246 60.021C42.2866 61.5977 43.0176 64.02 43.0176 67.288V79.5H37.8576L37.4276 77.307H37.2556C36.3669 78.1097 35.4066 78.769 34.3746 79.285C33.3712 79.7723 32.2676 80.016 31.0636 80.016ZM33.2136 75.114C33.9302 75.114 34.5466 74.9563 35.0626 74.641C35.6072 74.297 36.1519 73.8527 36.6966 73.308V69.567C34.4606 69.8537 32.9126 70.3123 32.0526 70.943C31.1926 71.545 30.7626 72.2617 30.7626 73.093C30.7626 73.781 30.9776 74.297 31.4076 74.641C31.8662 74.9563 32.4682 75.114 33.2136 75.114ZM48.3643 79.5V58.172H53.5243L53.9543 60.881H54.1263C55.0437 60.021 56.047 59.2757 57.1363 58.645C58.2543 57.9857 59.53 57.656 60.9633 57.656C63.2853 57.656 64.9623 58.43 65.9943 59.978C67.055 61.4973 67.5853 63.59 67.5853 66.256V79.5H61.2643V67.073C61.2643 65.525 61.0493 64.4643 60.6193 63.891C60.218 63.3177 59.5587 63.031 58.6413 63.031C57.8387 63.031 57.1507 63.2173 56.5773 63.59C56.004 63.934 55.3733 64.4357 54.6853 65.095V79.5H48.3643ZM80.5828 80.016C77.9454 80.016 75.8241 79.027 74.2188 77.049C72.6421 75.0423 71.8538 72.3047 71.8538 68.836C71.8538 66.514 72.2694 64.5217 73.1008 62.859C73.9608 61.1677 75.0644 59.8777 76.4118 58.989C77.7878 58.1003 79.2211 57.656 80.7118 57.656C81.8871 57.656 82.8761 57.8567 83.6788 58.258C84.4814 58.6593 85.2411 59.204 85.9578 59.892L85.6998 56.624V49.357H92.0208V79.5H86.8608L86.4308 77.393H86.2588C85.5134 78.1383 84.6391 78.769 83.6358 79.285C82.6324 79.7723 81.6148 80.016 80.5828 80.016ZM82.2168 74.856C82.9048 74.856 83.5211 74.7127 84.0658 74.426C84.6391 74.1393 85.1838 73.6377 85.6998 72.921V64.192C85.1551 63.676 84.5674 63.3177 83.9368 63.117C83.3348 62.9163 82.7471 62.816 82.1738 62.816C81.1704 62.816 80.2818 63.3033 79.5078 64.278C78.7338 65.224 78.3468 66.7147 78.3468 68.75C78.3468 70.8427 78.6764 72.3907 79.3358 73.394C80.0238 74.3687 80.9841 74.856 82.2168 74.856ZM101.19 79.5L95.8582 58.172H102.136L104.2 68.062C104.372 69.1227 104.53 70.169 104.673 71.201C104.817 72.233 104.974 73.2937 105.146 74.383H105.318C105.519 73.2937 105.705 72.2187 105.877 71.158C106.078 70.0973 106.307 69.0653 106.565 68.062L108.93 58.172H114.391L116.799 68.062C117.057 69.1227 117.287 70.169 117.487 71.201C117.717 72.233 117.932 73.2937 118.132 74.383H118.304C118.505 73.2937 118.663 72.233 118.777 71.201C118.921 70.169 119.093 69.1227 119.293 68.062L121.314 58.172H127.162L122.045 79.5H114.649L112.714 70.986C112.514 69.9827 112.313 68.9793 112.112 67.976C111.94 66.9727 111.754 65.8977 111.553 64.751H111.381C111.181 65.8977 110.994 66.9727 110.822 67.976C110.679 68.9793 110.507 69.9827 110.306 70.986L108.414 79.5H101.19ZM131.005 79.5V58.172H137.326V79.5H131.005ZM134.144 55.033C133.083 55.033 132.223 54.732 131.564 54.13C130.905 53.528 130.575 52.7253 130.575 51.722C130.575 50.7187 130.905 49.916 131.564 49.314C132.223 48.712 133.083 48.411 134.144 48.411C135.205 48.411 136.065 48.712 136.724 49.314C137.383 49.916 137.713 50.7187 137.713 51.722C137.713 52.7253 137.383 53.528 136.724 54.13C136.065 54.732 135.205 55.033 134.144 55.033ZM152.177 80.016C150.199 80.016 148.407 79.586 146.802 78.726C145.225 77.8373 143.964 76.5617 143.018 74.899C142.1 73.2077 141.642 71.1867 141.642 68.836C141.642 66.4567 142.158 64.4357 143.19 62.773C144.222 61.1103 145.583 59.849 147.275 58.989C148.966 58.1003 150.786 57.656 152.736 57.656C154.054 57.656 155.215 57.871 156.219 58.301C157.251 58.731 158.168 59.2757 158.971 59.935L156.004 64.02C155 63.1887 154.04 62.773 153.123 62.773C151.603 62.773 150.385 63.3177 149.468 64.407C148.579 65.4963 148.135 66.9727 148.135 68.836C148.135 70.6707 148.579 72.147 149.468 73.265C150.385 74.3543 151.532 74.899 152.908 74.899C153.596 74.899 154.269 74.7557 154.929 74.469C155.588 74.1537 156.19 73.781 156.735 73.351L159.229 77.479C158.168 78.3963 157.021 79.0557 155.789 79.457C154.556 79.8297 153.352 80.016 152.177 80.016ZM162.961 79.5V49.357H169.282V56.753L168.981 60.58C169.784 59.8633 170.715 59.204 171.776 58.602C172.865 57.9713 174.127 57.656 175.56 57.656C177.882 57.656 179.559 58.43 180.591 59.978C181.652 61.4973 182.182 63.59 182.182 66.256V79.5H175.861V67.073C175.861 65.525 175.646 64.4643 175.216 63.891C174.815 63.3177 174.155 63.031 173.238 63.031C172.435 63.031 171.747 63.2173 171.174 63.59C170.601 63.934 169.97 64.4357 169.282 65.095V79.5H162.961ZM197.072 80.016C195.037 80.016 193.202 79.5717 191.568 78.683C189.934 77.7943 188.644 76.5187 187.698 74.856C186.752 73.1933 186.279 71.1867 186.279 68.836C186.279 66.514 186.752 64.5217 187.698 62.859C188.673 61.1963 189.934 59.9207 191.482 59.032C193.03 58.1147 194.65 57.656 196.341 57.656C198.377 57.656 200.054 58.1147 201.372 59.032C202.72 59.9207 203.723 61.139 204.382 62.687C205.07 64.2063 205.414 65.9407 205.414 67.89C205.414 68.4347 205.386 68.9793 205.328 69.524C205.271 70.04 205.214 70.427 205.156 70.685H192.385C192.672 72.233 193.317 73.3797 194.32 74.125C195.324 74.8417 196.528 75.2 197.932 75.2C199.452 75.2 200.985 74.727 202.533 73.781L204.64 77.608C203.551 78.3533 202.333 78.941 200.985 79.371C199.638 79.801 198.334 80.016 197.072 80.016ZM192.342 66.514H200.039C200.039 65.3387 199.753 64.3783 199.179 63.633C198.635 62.859 197.732 62.472 196.47 62.472C195.496 62.472 194.621 62.816 193.847 63.504C193.073 64.1633 192.572 65.1667 192.342 66.514ZM216.06 80.016C214.656 80.016 213.208 79.7437 211.717 79.199C210.255 78.6543 208.98 77.9377 207.89 77.049L210.728 73.093C211.703 73.8097 212.635 74.3687 213.523 74.77C214.441 75.1427 215.344 75.329 216.232 75.329C217.178 75.329 217.866 75.1713 218.296 74.856C218.726 74.512 218.941 74.0677 218.941 73.523C218.941 73.0357 218.726 72.6343 218.296 72.319C217.895 72.0037 217.365 71.717 216.705 71.459C216.046 71.1723 215.344 70.8857 214.598 70.599C213.738 70.255 212.878 69.825 212.018 69.309C211.187 68.793 210.485 68.1337 209.911 67.331C209.338 66.4997 209.051 65.4963 209.051 64.321C209.051 62.343 209.797 60.7377 211.287 59.505C212.807 58.2723 214.785 57.656 217.221 57.656C218.855 57.656 220.289 57.9427 221.521 58.516C222.783 59.0607 223.858 59.677 224.746 60.365L221.908 64.149C221.163 63.5757 220.418 63.1313 219.672 62.816C218.927 62.5007 218.182 62.343 217.436 62.343C215.802 62.343 214.985 62.902 214.985 64.02C214.985 64.708 215.387 65.2383 216.189 65.611C217.021 65.955 217.981 66.3277 219.07 66.729C219.988 67.0443 220.876 67.46 221.736 67.976C222.625 68.4633 223.356 69.1227 223.929 69.954C224.531 70.7567 224.832 71.8173 224.832 73.136C224.832 75.0567 224.087 76.6907 222.596 78.038C221.106 79.3567 218.927 80.016 216.06 80.016Z" fill="#FFB30E"/>
</svg>
