<svg width="389" height="89" viewBox="0 0 389 89" fill="none" xmlns="http://www.w3.org/2000/svg">
<path d="M15.752 35.576C13.128 35.576 10.712 34.968 8.504 33.752C6.296 32.536 4.52 30.744 3.176 28.376C1.864 25.976 1.208 23.032 1.208 19.544C1.208 16.088 1.88 13.144 3.224 10.712C4.6 8.248 6.408 6.376 8.648 5.096C10.92 3.784 13.368 3.128 15.992 3.128C18.008 3.128 19.816 3.544 21.416 4.376C23.016 5.176 24.344 6.12 25.4 7.208L21.656 11.72C20.856 10.984 20.008 10.392 19.112 9.944C18.248 9.464 17.256 9.224 16.136 9.224C14.728 9.224 13.432 9.624 12.248 10.424C11.096 11.224 10.168 12.376 9.464 13.88C8.792 15.384 8.456 17.192 8.456 19.304C8.456 22.504 9.144 25 10.52 26.792C11.896 28.584 13.736 29.48 16.04 29.48C17.32 29.48 18.456 29.192 19.448 28.616C20.472 28.04 21.368 27.352 22.136 26.552L25.88 30.968C23.256 34.04 19.88 35.576 15.752 35.576ZM40.7135 35.576C38.4415 35.576 36.3935 35.08 34.5695 34.088C32.7455 33.096 31.3055 31.672 30.2495 29.816C29.1935 27.96 28.6655 25.72 28.6655 23.096C28.6655 20.504 29.1935 18.28 30.2495 16.424C31.3375 14.568 32.7455 13.144 34.4735 12.152C36.2015 11.128 38.0095 10.616 39.8975 10.616C42.1695 10.616 44.0415 11.128 45.5135 12.152C47.0175 13.144 48.1375 14.504 48.8735 16.232C49.6415 17.928 50.0255 19.864 50.0255 22.04C50.0255 22.648 49.9935 23.256 49.9295 23.864C49.8655 24.44 49.8015 24.872 49.7375 25.16H35.4815C35.8015 26.888 36.5215 28.168 37.6415 29C38.7615 29.8 40.1055 30.2 41.6735 30.2C43.3695 30.2 45.0815 29.672 46.8095 28.616L49.1615 32.888C47.9455 33.72 46.5855 34.376 45.0815 34.856C43.5775 35.336 42.1215 35.576 40.7135 35.576ZM35.4335 20.504H44.0255C44.0255 19.192 43.7055 18.12 43.0655 17.288C42.4575 16.424 41.4495 15.992 40.0415 15.992C38.9535 15.992 37.9775 16.376 37.1135 17.144C36.2495 17.88 35.6895 19 35.4335 20.504ZM61.3813 35.576C58.9493 35.576 57.2533 34.856 56.2933 33.416C55.3653 31.944 54.9013 30.008 54.9013 27.608V1.352H61.9573V27.896C61.9573 28.632 62.0853 29.144 62.3413 29.432C62.6293 29.72 62.9173 29.864 63.2053 29.864C63.3653 29.864 63.4933 29.864 63.5893 29.864C63.7173 29.832 63.8773 29.8 64.0693 29.768L64.9333 35C64.5493 35.16 64.0533 35.288 63.4453 35.384C62.8693 35.512 62.1813 35.576 61.3813 35.576ZM79.2916 35.576C77.0196 35.576 74.9716 35.08 73.1476 34.088C71.3236 33.096 69.8836 31.672 68.8276 29.816C67.7716 27.96 67.2436 25.72 67.2436 23.096C67.2436 20.504 67.7716 18.28 68.8276 16.424C69.9156 14.568 71.3236 13.144 73.0516 12.152C74.7796 11.128 76.5876 10.616 78.4756 10.616C80.7476 10.616 82.6196 11.128 84.0916 12.152C85.5956 13.144 86.7156 14.504 87.4516 16.232C88.2196 17.928 88.6036 19.864 88.6036 22.04C88.6036 22.648 88.5716 23.256 88.5076 23.864C88.4436 24.44 88.3796 24.872 88.3156 25.16H74.0596C74.3796 26.888 75.0996 28.168 76.2196 29C77.3396 29.8 78.6836 30.2 80.2516 30.2C81.9476 30.2 83.6596 29.672 85.3876 28.616L87.7396 32.888C86.5236 33.72 85.1636 34.376 83.6596 34.856C82.1556 35.336 80.6996 35.576 79.2916 35.576ZM74.0116 20.504H82.6036C82.6036 19.192 82.2836 18.12 81.6436 17.288C81.0356 16.424 80.0276 15.992 78.6196 15.992C77.5316 15.992 76.5556 16.376 75.6916 17.144C74.8276 17.88 74.2676 19 74.0116 20.504ZM105.959 35.576C104.903 35.576 103.831 35.32 102.743 34.808C101.687 34.264 100.695 33.48 99.7674 32.456H99.5754L98.9994 35H93.4794V1.352H100.535V9.608L100.343 13.256C101.271 12.424 102.279 11.784 103.367 11.336C104.455 10.856 105.543 10.616 106.631 10.616C108.551 10.616 110.215 11.112 111.623 12.104C113.031 13.096 114.103 14.504 114.839 16.328C115.607 18.12 115.991 20.232 115.991 22.664C115.991 25.384 115.511 27.72 114.551 29.672C113.591 31.592 112.343 33.064 110.807 34.088C109.303 35.08 107.687 35.576 105.959 35.576ZM104.327 29.816C105.543 29.816 106.583 29.256 107.447 28.136C108.311 27.016 108.743 25.24 108.743 22.808C108.743 18.52 107.367 16.376 104.615 16.376C103.207 16.376 101.847 17.096 100.535 18.536V28.28C101.175 28.856 101.815 29.256 102.455 29.48C103.095 29.704 103.719 29.816 104.327 29.816ZM120.995 35V11.192H126.755L127.235 15.368H127.427C128.291 13.768 129.331 12.584 130.547 11.816C131.763 11.016 132.979 10.616 134.195 10.616C134.867 10.616 135.427 10.664 135.875 10.76C136.323 10.824 136.707 10.936 137.027 11.096L135.875 17.192C135.459 17.064 135.043 16.968 134.627 16.904C134.243 16.84 133.795 16.808 133.283 16.808C132.387 16.808 131.443 17.144 130.451 17.816C129.491 18.456 128.691 19.576 128.051 21.176V35H120.995ZM144.761 35.576C142.585 35.576 140.857 34.888 139.577 33.512C138.297 32.104 137.657 30.392 137.657 28.376C137.657 25.88 138.713 23.928 140.825 22.52C142.937 21.112 146.345 20.168 151.049 19.688C150.985 18.632 150.665 17.8 150.089 17.192C149.545 16.552 148.617 16.232 147.305 16.232C146.313 16.232 145.305 16.424 144.281 16.808C143.257 17.192 142.169 17.72 141.017 18.392L138.473 13.736C139.977 12.808 141.577 12.056 143.273 11.48C145.001 10.904 146.793 10.616 148.649 10.616C151.689 10.616 154.025 11.496 155.657 13.256C157.289 15.016 158.105 17.72 158.105 21.368V35H152.345L151.865 32.552H151.673C150.681 33.448 149.609 34.184 148.457 34.76C147.337 35.304 146.105 35.576 144.761 35.576ZM147.161 30.104C147.961 30.104 148.649 29.928 149.225 29.576C149.833 29.192 150.441 28.696 151.049 28.088V23.912C148.553 24.232 146.825 24.744 145.865 25.448C144.905 26.12 144.425 26.92 144.425 27.848C144.425 28.616 144.665 29.192 145.145 29.576C145.657 29.928 146.329 30.104 147.161 30.104ZM172.397 35.576C169.453 35.576 167.341 34.728 166.061 33.032C164.813 31.336 164.189 29.112 164.189 26.36V16.712H160.925V11.48L164.573 11.192L165.389 4.856H171.245V11.192H176.957V16.712H171.245V26.264C171.245 27.608 171.517 28.584 172.061 29.192C172.637 29.768 173.389 30.056 174.317 30.056C174.701 30.056 175.085 30.008 175.469 29.912C175.885 29.816 176.253 29.704 176.573 29.576L177.677 34.712C177.069 34.904 176.317 35.096 175.421 35.288C174.557 35.48 173.549 35.576 172.397 35.576ZM191.417 35.576C189.145 35.576 187.097 35.08 185.273 34.088C183.449 33.096 182.009 31.672 180.953 29.816C179.897 27.96 179.369 25.72 179.369 23.096C179.369 20.504 179.897 18.28 180.953 16.424C182.041 14.568 183.449 13.144 185.177 12.152C186.905 11.128 188.713 10.616 190.601 10.616C192.873 10.616 194.745 11.128 196.217 12.152C197.721 13.144 198.841 14.504 199.577 16.232C200.345 17.928 200.729 19.864 200.729 22.04C200.729 22.648 200.697 23.256 200.633 23.864C200.569 24.44 200.505 24.872 200.441 25.16H186.185C186.505 26.888 187.225 28.168 188.345 29C189.465 29.8 190.809 30.2 192.377 30.2C194.073 30.2 195.785 29.672 197.513 28.616L199.865 32.888C198.649 33.72 197.289 34.376 195.785 34.856C194.281 35.336 192.825 35.576 191.417 35.576ZM186.137 20.504H194.729C194.729 19.192 194.409 18.12 193.769 17.288C193.161 16.424 192.153 15.992 190.745 15.992C189.657 15.992 188.681 16.376 187.817 17.144C186.953 17.88 186.393 19 186.137 20.504ZM224.823 43.832V11.192H230.583L231.063 13.544H231.255C232.183 12.712 233.223 12.024 234.375 11.48C235.559 10.904 236.775 10.616 238.023 10.616C240.903 10.616 243.175 11.72 244.839 13.928C246.503 16.104 247.335 19.032 247.335 22.712C247.335 25.432 246.855 27.752 245.895 29.672C244.935 31.592 243.687 33.064 242.151 34.088C240.647 35.08 239.031 35.576 237.303 35.576C236.279 35.576 235.287 35.368 234.327 34.952C233.367 34.504 232.471 33.88 231.639 33.08L231.879 36.872V43.832H224.823ZM235.671 29.816C236.887 29.816 237.927 29.256 238.791 28.136C239.655 27.016 240.087 25.24 240.087 22.808C240.087 18.52 238.711 16.376 235.959 16.376C234.583 16.376 233.223 17.096 231.879 18.536V28.28C232.519 28.856 233.159 29.256 233.799 29.48C234.439 29.704 235.063 29.816 235.671 29.816ZM257.823 35.576C255.647 35.576 253.919 34.888 252.639 33.512C251.359 32.104 250.719 30.392 250.719 28.376C250.719 25.88 251.775 23.928 253.887 22.52C255.999 21.112 259.407 20.168 264.111 19.688C264.047 18.632 263.727 17.8 263.151 17.192C262.607 16.552 261.679 16.232 260.367 16.232C259.375 16.232 258.367 16.424 257.343 16.808C256.319 17.192 255.231 17.72 254.079 18.392L251.535 13.736C253.039 12.808 254.639 12.056 256.335 11.48C258.063 10.904 259.855 10.616 261.711 10.616C264.751 10.616 267.087 11.496 268.719 13.256C270.351 15.016 271.167 17.72 271.167 21.368V35H265.407L264.927 32.552H264.735C263.743 33.448 262.671 34.184 261.519 34.76C260.399 35.304 259.167 35.576 257.823 35.576ZM260.223 30.104C261.023 30.104 261.711 29.928 262.287 29.576C262.895 29.192 263.503 28.696 264.111 28.088V23.912C261.615 24.232 259.887 24.744 258.927 25.448C257.967 26.12 257.487 26.92 257.487 27.848C257.487 28.616 257.727 29.192 258.207 29.576C258.719 29.928 259.391 30.104 260.223 30.104ZM277.136 35V11.192H282.896L283.376 15.368H283.568C284.432 13.768 285.472 12.584 286.688 11.816C287.904 11.016 289.12 10.616 290.336 10.616C291.008 10.616 291.568 10.664 292.016 10.76C292.464 10.824 292.848 10.936 293.168 11.096L292.016 17.192C291.6 17.064 291.184 16.968 290.768 16.904C290.384 16.84 289.936 16.808 289.424 16.808C288.528 16.808 287.584 17.144 286.592 17.816C285.632 18.456 284.832 19.576 284.192 21.176V35H277.136ZM305.429 35.576C302.485 35.576 300.373 34.728 299.093 33.032C297.845 31.336 297.221 29.112 297.221 26.36V16.712H293.957V11.48L297.605 11.192L298.421 4.856H304.277V11.192H309.989V16.712H304.277V26.264C304.277 27.608 304.549 28.584 305.093 29.192C305.669 29.768 306.421 30.056 307.349 30.056C307.733 30.056 308.117 30.008 308.501 29.912C308.917 29.816 309.285 29.704 309.605 29.576L310.709 34.712C310.101 34.904 309.349 35.096 308.453 35.288C307.589 35.48 306.581 35.576 305.429 35.576ZM314.636 35V11.192H321.692V35H314.636ZM318.14 7.688C316.956 7.688 315.996 7.352 315.26 6.68C314.524 6.008 314.156 5.112 314.156 3.992C314.156 2.872 314.524 1.976 315.26 1.304C315.996 0.631998 316.956 0.295998 318.14 0.295998C319.324 0.295998 320.284 0.631998 321.02 1.304C321.756 1.976 322.124 2.872 322.124 3.992C322.124 5.112 321.756 6.008 321.02 6.68C320.284 7.352 319.324 7.688 318.14 7.688ZM338.557 35.576C336.285 35.576 334.237 35.08 332.413 34.088C330.589 33.096 329.149 31.672 328.093 29.816C327.037 27.96 326.509 25.72 326.509 23.096C326.509 20.504 327.037 18.28 328.093 16.424C329.181 14.568 330.589 13.144 332.317 12.152C334.045 11.128 335.853 10.616 337.741 10.616C340.013 10.616 341.885 11.128 343.357 12.152C344.861 13.144 345.981 14.504 346.717 16.232C347.485 17.928 347.869 19.864 347.869 22.04C347.869 22.648 347.837 23.256 347.773 23.864C347.709 24.44 347.645 24.872 347.581 25.16H333.325C333.645 26.888 334.365 28.168 335.485 29C336.605 29.8 337.949 30.2 339.517 30.2C341.213 30.2 342.925 29.672 344.653 28.616L347.005 32.888C345.789 33.72 344.429 34.376 342.925 34.856C341.421 35.336 339.965 35.576 338.557 35.576ZM333.277 20.504H341.869C341.869 19.192 341.549 18.12 340.909 17.288C340.301 16.424 339.293 15.992 337.885 15.992C336.797 15.992 335.821 16.376 334.957 17.144C334.093 17.88 333.533 19 333.277 20.504ZM359.753 35.576C358.185 35.576 356.569 35.272 354.905 34.664C353.273 34.056 351.849 33.256 350.633 32.264L353.801 27.848C354.889 28.648 355.929 29.272 356.921 29.72C357.945 30.136 358.953 30.344 359.945 30.344C361.001 30.344 361.769 30.168 362.249 29.816C362.729 29.432 362.969 28.936 362.969 28.328C362.969 27.784 362.729 27.336 362.249 26.984C361.801 26.632 361.209 26.312 360.473 26.024C359.737 25.704 358.953 25.384 358.121 25.064C357.161 24.68 356.201 24.2 355.241 23.624C354.313 23.048 353.529 22.312 352.889 21.416C352.249 20.488 351.929 19.368 351.929 18.056C351.929 15.848 352.761 14.056 354.425 12.68C356.121 11.304 358.329 10.616 361.049 10.616C362.873 10.616 364.473 10.936 365.849 11.576C367.257 12.184 368.457 12.872 369.449 13.64L366.281 17.864C365.449 17.224 364.617 16.728 363.785 16.376C362.953 16.024 362.121 15.848 361.289 15.848C359.465 15.848 358.553 16.472 358.553 17.72C358.553 18.488 359.001 19.08 359.897 19.496C360.825 19.88 361.897 20.296 363.113 20.744C364.137 21.096 365.129 21.56 366.089 22.136C367.081 22.68 367.897 23.416 368.537 24.344C369.209 25.24 369.545 26.424 369.545 27.896C369.545 30.04 368.713 31.864 367.049 33.368C365.385 34.84 362.953 35.576 359.753 35.576ZM6.104 88L0.152 64.192H7.16L9.464 75.232C9.656 76.416 9.832 77.584 9.992 78.736C10.152 79.888 10.328 81.072 10.52 82.288H10.712C10.936 81.072 11.144 79.872 11.336 78.688C11.56 77.504 11.816 76.352 12.104 75.232L14.744 64.192H20.84L23.528 75.232C23.816 76.416 24.072 77.584 24.296 78.736C24.552 79.888 24.792 81.072 25.016 82.288H25.208C25.432 81.072 25.608 79.888 25.736 78.736C25.896 77.584 26.088 76.416 26.312 75.232L28.568 64.192H35.096L29.384 88H21.128L18.968 78.496C18.744 77.376 18.52 76.256 18.296 75.136C18.104 74.016 17.896 72.816 17.672 71.536H17.48C17.256 72.816 17.048 74.016 16.856 75.136C16.696 76.256 16.504 77.376 16.28 78.496L14.168 88H6.104ZM39.3856 88V64.192H46.4416V88H39.3856ZM42.8896 60.688C41.7056 60.688 40.7456 60.352 40.0096 59.68C39.2736 59.008 38.9056 58.112 38.9056 56.992C38.9056 55.872 39.2736 54.976 40.0096 54.304C40.7456 53.632 41.7056 53.296 42.8896 53.296C44.0736 53.296 45.0336 53.632 45.7696 54.304C46.5056 54.976 46.8736 55.872 46.8736 56.992C46.8736 58.112 46.5056 59.008 45.7696 59.68C45.0336 60.352 44.0736 60.688 42.8896 60.688ZM61.8193 88.576C58.8753 88.576 56.7633 87.728 55.4833 86.032C54.2353 84.336 53.6113 82.112 53.6113 79.36V69.712H50.3473V64.48L53.9953 64.192L54.8113 57.856H60.6673V64.192H66.3793V69.712H60.6673V79.264C60.6673 80.608 60.9393 81.584 61.4833 82.192C62.0593 82.768 62.8113 83.056 63.7393 83.056C64.1233 83.056 64.5073 83.008 64.8913 82.912C65.3073 82.816 65.6753 82.704 65.9953 82.576L67.0993 87.712C66.4913 87.904 65.7393 88.096 64.8433 88.288C63.9793 88.48 62.9713 88.576 61.8193 88.576ZM71.0263 88V54.352H78.0823V62.608L77.7463 66.88C78.6423 66.08 79.6823 65.344 80.8663 64.672C82.0823 63.968 83.4903 63.616 85.0903 63.616C87.6823 63.616 89.5543 64.48 90.7063 66.208C91.8903 67.904 92.4823 70.24 92.4823 73.216V88H85.4263V74.128C85.4263 72.4 85.1863 71.216 84.7063 70.576C84.2583 69.936 83.5223 69.616 82.4983 69.616C81.6023 69.616 80.8343 69.824 80.1943 70.24C79.5543 70.624 78.8503 71.184 78.0823 71.92V88H71.0263Z" fill="#424242"/>
<path d="M108.634 88V56.704H128.362V62.656H115.69V69.904H126.538V75.856H115.69V88H108.634ZM132.292 88V64.192H138.052L138.532 68.368H138.724C139.588 66.768 140.628 65.584 141.844 64.816C143.06 64.016 144.276 63.616 145.492 63.616C146.164 63.616 146.724 63.664 147.172 63.76C147.62 63.824 148.004 63.936 148.324 64.096L147.172 70.192C146.756 70.064 146.34 69.968 145.924 69.904C145.54 69.84 145.092 69.808 144.58 69.808C143.684 69.808 142.74 70.144 141.748 70.816C140.788 71.456 139.988 72.576 139.348 74.176V88H132.292ZM151.417 88V64.192H158.473V88H151.417ZM154.921 60.688C153.737 60.688 152.777 60.352 152.041 59.68C151.305 59.008 150.937 58.112 150.937 56.992C150.937 55.872 151.305 54.976 152.041 54.304C152.777 53.632 153.737 53.296 154.921 53.296C156.105 53.296 157.065 53.632 157.801 54.304C158.537 54.976 158.905 55.872 158.905 56.992C158.905 58.112 158.537 59.008 157.801 59.68C157.065 60.352 156.105 60.688 154.921 60.688ZM175.339 88.576C173.067 88.576 171.019 88.08 169.195 87.088C167.371 86.096 165.931 84.672 164.875 82.816C163.819 80.96 163.291 78.72 163.291 76.096C163.291 73.504 163.819 71.28 164.875 69.424C165.963 67.568 167.371 66.144 169.099 65.152C170.827 64.128 172.635 63.616 174.523 63.616C176.795 63.616 178.667 64.128 180.139 65.152C181.643 66.144 182.763 67.504 183.499 69.232C184.267 70.928 184.651 72.864 184.651 75.04C184.651 75.648 184.619 76.256 184.555 76.864C184.491 77.44 184.427 77.872 184.363 78.16H170.107C170.427 79.888 171.147 81.168 172.267 82C173.387 82.8 174.731 83.2 176.299 83.2C177.995 83.2 179.707 82.672 181.435 81.616L183.787 85.888C182.571 86.72 181.211 87.376 179.707 87.856C178.203 88.336 176.747 88.576 175.339 88.576ZM170.059 73.504H178.651C178.651 72.192 178.331 71.12 177.691 70.288C177.083 69.424 176.075 68.992 174.667 68.992C173.579 68.992 172.603 69.376 171.739 70.144C170.875 70.88 170.315 72 170.059 73.504ZM198.022 88.576C195.078 88.576 192.71 87.472 190.918 85.264C189.158 83.024 188.278 79.968 188.278 76.096C188.278 73.504 188.742 71.28 189.67 69.424C190.63 67.536 191.862 66.096 193.366 65.104C194.902 64.112 196.502 63.616 198.166 63.616C199.478 63.616 200.582 63.84 201.478 64.288C202.374 64.736 203.222 65.344 204.022 66.112L203.734 62.464V54.352H210.79V88H205.03L204.55 85.648H204.358C203.526 86.48 202.55 87.184 201.43 87.76C200.31 88.304 199.174 88.576 198.022 88.576ZM199.846 82.816C200.614 82.816 201.302 82.656 201.91 82.336C202.55 82.016 203.158 81.456 203.734 80.656V70.912C203.126 70.336 202.47 69.936 201.766 69.712C201.094 69.488 200.438 69.376 199.798 69.376C198.678 69.376 197.686 69.92 196.822 71.008C195.958 72.064 195.526 73.728 195.526 76C195.526 78.336 195.894 80.064 196.63 81.184C197.398 82.272 198.47 82.816 199.846 82.816ZM240.283 88.576C237.659 88.576 235.243 87.968 233.035 86.752C230.827 85.536 229.051 83.744 227.707 81.376C226.395 78.976 225.739 76.032 225.739 72.544C225.739 69.088 226.411 66.144 227.755 63.712C229.131 61.248 230.939 59.376 233.179 58.096C235.451 56.784 237.899 56.128 240.523 56.128C242.539 56.128 244.347 56.544 245.947 57.376C247.547 58.176 248.875 59.12 249.931 60.208L246.187 64.72C245.387 63.984 244.539 63.392 243.643 62.944C242.779 62.464 241.787 62.224 240.667 62.224C239.259 62.224 237.963 62.624 236.779 63.424C235.627 64.224 234.699 65.376 233.995 66.88C233.323 68.384 232.987 70.192 232.987 72.304C232.987 75.504 233.675 78 235.051 79.792C236.427 81.584 238.267 82.48 240.571 82.48C241.851 82.48 242.987 82.192 243.979 81.616C245.003 81.04 245.899 80.352 246.667 79.552L250.411 83.968C247.787 87.04 244.411 88.576 240.283 88.576ZM254.589 88V54.352H261.645V62.608L261.309 66.88C262.205 66.08 263.245 65.344 264.429 64.672C265.645 63.968 267.053 63.616 268.653 63.616C271.245 63.616 273.117 64.48 274.269 66.208C275.453 67.904 276.045 70.24 276.045 73.216V88H268.989V74.128C268.989 72.4 268.749 71.216 268.269 70.576C267.821 69.936 267.085 69.616 266.061 69.616C265.165 69.616 264.397 69.824 263.757 70.24C263.117 70.624 262.413 71.184 261.645 71.92V88H254.589ZM282.011 88V64.192H289.067V88H282.011ZM285.515 60.688C284.331 60.688 283.371 60.352 282.635 59.68C281.899 59.008 281.531 58.112 281.531 56.992C281.531 55.872 281.899 54.976 282.635 54.304C283.371 53.632 284.331 53.296 285.515 53.296C286.699 53.296 287.659 53.632 288.395 54.304C289.131 54.976 289.499 55.872 289.499 56.992C289.499 58.112 289.131 59.008 288.395 59.68C287.659 60.352 286.699 60.688 285.515 60.688ZM305.644 88.576C303.436 88.576 301.436 88.096 299.644 87.136C297.884 86.144 296.476 84.72 295.42 82.864C294.396 80.976 293.884 78.72 293.884 76.096C293.884 73.44 294.46 71.184 295.612 69.328C296.764 67.472 298.284 66.064 300.172 65.104C302.06 64.112 304.092 63.616 306.268 63.616C307.74 63.616 309.036 63.856 310.156 64.336C311.308 64.816 312.332 65.424 313.228 66.16L309.916 70.72C308.796 69.792 307.724 69.328 306.7 69.328C305.004 69.328 303.644 69.936 302.62 71.152C301.628 72.368 301.132 74.016 301.132 76.096C301.132 78.144 301.628 79.792 302.62 81.04C303.644 82.256 304.924 82.864 306.46 82.864C307.228 82.864 307.98 82.704 308.716 82.384C309.452 82.032 310.124 81.616 310.732 81.136L313.516 85.744C312.332 86.768 311.052 87.504 309.676 87.952C308.3 88.368 306.956 88.576 305.644 88.576ZM317.683 88V54.352H324.547V73.648H324.739L332.275 64.192H339.955L331.603 73.984L340.579 88H332.947L327.571 78.736L324.547 82.144V88H317.683ZM353.276 88.576C351.004 88.576 348.956 88.08 347.132 87.088C345.308 86.096 343.868 84.672 342.812 82.816C341.756 80.96 341.228 78.72 341.228 76.096C341.228 73.504 341.756 71.28 342.812 69.424C343.9 67.568 345.308 66.144 347.036 65.152C348.764 64.128 350.572 63.616 352.46 63.616C354.732 63.616 356.604 64.128 358.076 65.152C359.58 66.144 360.7 67.504 361.436 69.232C362.204 70.928 362.588 72.864 362.588 75.04C362.588 75.648 362.556 76.256 362.492 76.864C362.428 77.44 362.364 77.872 362.3 78.16H348.044C348.364 79.888 349.084 81.168 350.204 82C351.324 82.8 352.668 83.2 354.236 83.2C355.932 83.2 357.644 82.672 359.372 81.616L361.724 85.888C360.508 86.72 359.148 87.376 357.644 87.856C356.14 88.336 354.684 88.576 353.276 88.576ZM347.996 73.504H356.588C356.588 72.192 356.268 71.12 355.628 70.288C355.02 69.424 354.012 68.992 352.604 68.992C351.516 68.992 350.54 69.376 349.676 70.144C348.812 70.88 348.252 72 347.996 73.504ZM367.464 88V64.192H373.224L373.704 67.216H373.896C374.92 66.256 376.04 65.424 377.256 64.72C378.504 63.984 379.928 63.616 381.528 63.616C384.12 63.616 385.992 64.48 387.144 66.208C388.328 67.904 388.92 70.24 388.92 73.216V88H381.864V74.128C381.864 72.4 381.624 71.216 381.144 70.576C380.696 69.936 379.96 69.616 378.936 69.616C378.04 69.616 377.272 69.824 376.632 70.24C375.992 70.624 375.288 71.184 374.52 71.92V88H367.464Z" fill="#FFB30E"/>
</svg>
